<svg width="184" height="41" viewBox="0 0 184 41" fill="none" xmlns="http://www.w3.org/2000/svg">
    <path d="M50.1 29.4C49.9 29.4 49.8 29.3 49.7 29.2C49.6 29.2 49.5 29 49.5 28.9V13.2C49.5 13 49.6 12.9 49.7 12.8C49.8 12.7 49.9 12.6 50.1 12.6H52.3C52.5 12.6 52.6 12.7 52.7 12.8C52.8 12.9 52.9 13 52.9 13.2V26.6H60.4C60.6 26.6 60.7 26.7 60.8 26.8C60.9 26.9 61 27.1 61 27.2V28.9C61 29.1 60.9 29.2 60.8 29.3C60.7 29.4 60.5 29.4 60.4 29.4H50.1Z" fill="white"/>
    <path d="M63.4008 14.9C63.2008 14.9 63.1008 14.8 63.0008 14.7C62.9008 14.6 62.8008 14.5 62.8008 14.3V12.6C62.8008 12.4 62.9008 12.3 63.0008 12.2C63.1008 12.1 63.2008 12 63.4008 12H65.6008C65.8008 12 65.9008 12.1 66.0008 12.2C66.1008 12.3 66.2008 12.4 66.2008 12.6V14.3C66.2008 14.5 66.1008 14.6 66.0008 14.7C65.9008 14.8 65.7008 14.9 65.6008 14.9H63.4008ZM63.5008 29.4C63.3008 29.4 63.2008 29.3 63.1008 29.2C63.0008 29.1 62.9008 29 62.9008 28.8V17.5C62.9008 17.3 63.0008 17.2 63.1008 17.1C63.2008 17 63.3008 16.9 63.5008 16.9H65.5008C65.7008 16.9 65.8008 17 65.9008 17.1C66.0008 17.2 66.1008 17.3 66.1008 17.5V28.8C66.1008 29 66.0008 29.1 65.9008 29.2C65.8008 29.3 65.7008 29.4 65.5008 29.4H63.5008Z" fill="white"/>
    <path d="M77.9992 34C77.7992 34 77.6992 33.9 77.5992 33.8C77.4992 33.7 77.3992 33.6 77.3992 33.4V28C76.5992 29.1 75.2992 29.7 73.7992 29.7C72.1992 29.7 70.9992 29.2 70.0992 28.2C69.1992 27.2 68.7992 25.8 68.6992 24.1V23.2V22.4C68.7992 20.7 69.1992 19.3 70.0992 18.3C70.9992 17.3 72.1992 16.8 73.7992 16.8C75.4992 16.8 76.6992 17.4 77.5992 18.6V17.6C77.5992 17.4 77.6992 17.3 77.7992 17.2C77.8992 17.1 77.9992 17 78.1992 17H80.0992C80.2992 17 80.3992 17.1 80.4992 17.2C80.5992 17.3 80.6992 17.4 80.6992 17.6V33.5C80.6992 33.7 80.5992 33.8 80.4992 33.9C80.3992 34 80.2992 34.1 80.0992 34.1H77.9992V34ZM74.5992 27.1C75.4992 27.1 76.0992 26.8 76.5992 26.3C77.0992 25.7 77.2992 25 77.3992 24.2C77.3992 23.8 77.3992 23.5 77.3992 23.3C77.3992 23.1 77.3992 22.8 77.3992 22.4C77.3992 21.6 77.0992 20.8 76.6992 20.2C76.2992 19.6 75.5992 19.3 74.6992 19.3C72.9992 19.3 72.0992 20.4 71.9992 22.5V23.2V23.9C71.9992 26 72.8992 27.1 74.5992 27.1Z" fill="white"/>
    <path d="M88.3016 29.7C86.8016 29.7 85.7016 29.2 84.9016 28.3C84.1016 27.3 83.6016 26 83.6016 24.3V17.6C83.6016 17.4 83.7016 17.3 83.8016 17.2C83.9016 17.1 84.0016 17 84.2016 17H86.3016C86.5016 17 86.6016 17.1 86.7016 17.2C86.8016 17.3 86.9016 17.4 86.9016 17.6V24.2C86.9016 26.2 87.8016 27.2 89.5016 27.2C90.3016 27.2 91.0016 26.9 91.4016 26.4C91.9016 25.9 92.1016 25.1 92.1016 24.2V17.6C92.1016 17.4 92.2016 17.3 92.3016 17.2C92.4016 17.1 92.5016 17 92.7016 17H94.8016C95.0016 17 95.1016 17.1 95.2016 17.2C95.3016 17.3 95.4016 17.4 95.4016 17.6V28.9C95.4016 29.1 95.3016 29.2 95.2016 29.3C95.1016 29.4 95.0016 29.5 94.8016 29.5H92.9016C92.7016 29.5 92.6016 29.4 92.5016 29.3C92.4016 29.2 92.3016 29.1 92.3016 28.9V27.9C91.3016 29.1 90.0016 29.7 88.3016 29.7Z" fill="white"/>
    <path d="M98.9008 14.9C98.7008 14.9 98.6008 14.8 98.5008 14.7C98.4008 14.6 98.3008 14.5 98.3008 14.3V12.6C98.3008 12.4 98.4008 12.3 98.5008 12.2C98.6008 12.1 98.7008 12 98.9008 12H101.101C101.301 12 101.401 12.1 101.501 12.2C101.601 12.3 101.701 12.4 101.701 12.6V14.3C101.701 14.5 101.601 14.6 101.501 14.7C101.401 14.8 101.201 14.9 101.101 14.9H98.9008ZM99.0008 29.4C98.8008 29.4 98.7008 29.3 98.6008 29.2C98.5008 29.1 98.4008 29 98.4008 28.8V17.5C98.4008 17.3 98.5008 17.2 98.6008 17.1C98.7008 17 98.8008 16.9 99.0008 16.9H101.001C101.201 16.9 101.301 17 101.401 17.1C101.501 17.2 101.601 17.3 101.601 17.5V28.8C101.601 29 101.501 29.1 101.401 29.2C101.301 29.3 101.201 29.4 101.001 29.4H99.0008Z" fill="white"/>
    <path d="M109.202 29.7C107.602 29.7 106.402 29.2 105.502 28.1C104.602 27.1 104.202 25.7 104.102 23.9V23.1V22.3C104.102 20.6 104.602 19.2 105.402 18.2C106.302 17.1 107.502 16.6 109.102 16.6C110.602 16.6 111.802 17.1 112.702 18.2V13C112.702 12.8 112.802 12.7 112.902 12.6C113.002 12.5 113.102 12.4 113.302 12.4H115.302C115.502 12.4 115.602 12.5 115.702 12.6C115.802 12.7 115.902 12.8 115.902 13V28.9C115.902 29.1 115.802 29.2 115.702 29.3C115.602 29.4 115.502 29.5 115.302 29.5H113.402C113.202 29.5 113.102 29.4 113.002 29.3C112.902 29.2 112.802 29.1 112.802 28.9V28C112.102 29.1 110.802 29.7 109.202 29.7ZM110.102 27.1C111.002 27.1 111.702 26.8 112.102 26.2C112.502 25.6 112.802 24.9 112.802 24C112.802 23.8 112.802 23.5 112.802 23.1C112.802 22.7 112.802 22.4 112.802 22.2C112.802 21.4 112.502 20.7 112.002 20.2C111.502 19.6 110.902 19.3 110.002 19.3C108.302 19.3 107.402 20.4 107.302 22.5V23.2V23.9C107.502 26 108.402 27.1 110.102 27.1Z" fill="white"/>
    <path d="M130.598 29.7C129.198 29.7 127.998 29.5 126.998 29.1C125.998 28.7 125.198 28.1 124.698 27.4C124.198 26.7 123.898 25.9 123.898 25.1C123.898 25 123.898 24.8 123.998 24.7C124.098 24.6 124.198 24.6 124.398 24.6H126.498C126.698 24.6 126.798 24.6 126.898 24.7C126.998 24.8 127.098 24.9 127.198 25C127.398 25.5 127.698 26 128.298 26.4C128.898 26.8 129.598 27 130.598 27C131.698 27 132.598 26.8 133.098 26.4C133.698 26 133.998 25.5 133.998 24.8C133.998 24.4 133.798 24 133.598 23.7C133.298 23.4 132.898 23.2 132.298 23C131.698 22.8 130.898 22.5 129.698 22.2C127.798 21.8 126.498 21.2 125.598 20.4C124.698 19.6 124.298 18.6 124.298 17.2C124.298 16.3 124.498 15.4 124.998 14.7C125.498 14 126.198 13.4 127.198 13C128.098 12.6 129.198 12.4 130.498 12.4C131.798 12.4 132.898 12.6 133.898 13.1C134.798 13.6 135.598 14.1 136.098 14.9C136.598 15.6 136.898 16.3 136.898 17C136.898 17.1 136.898 17.3 136.798 17.4C136.698 17.5 136.598 17.5 136.398 17.5H134.198C133.898 17.5 133.598 17.3 133.498 17C133.398 16.5 133.098 16.1 132.598 15.7C132.098 15.3 131.398 15.2 130.598 15.2C129.698 15.2 128.998 15.4 128.498 15.7C127.998 16 127.698 16.5 127.698 17.2C127.698 17.6 127.798 18 128.098 18.3C128.398 18.6 128.698 18.8 129.298 19.1C129.898 19.3 130.598 19.6 131.698 19.8C133.098 20.1 134.198 20.5 134.998 20.9C135.798 21.3 136.498 21.8 136.798 22.4C137.198 23 137.398 23.8 137.398 24.7C137.398 25.7 137.098 26.6 136.498 27.4C135.898 28.2 135.198 28.7 134.098 29.1C133.098 29.5 131.898 29.7 130.598 29.7Z" fill="white"/>
    <path d="M140.6 29.4C140.4 29.4 140.3 29.3 140.2 29.2C140.1 29.1 140 29 140 28.8V13.2C140 13 140 12.9 140.1 12.8C140.2 12.7 140.4 12.6 140.5 12.6H150.9C151.1 12.6 151.2 12.7 151.3 12.8C151.4 12.9 151.5 13.1 151.5 13.2V14.8C151.5 15 151.4 15.1 151.3 15.2C151.2 15.3 151 15.3 150.9 15.3H143.1V19.6H150.4C150.6 19.6 150.7 19.7 150.8 19.8C150.9 19.9 151 20 151 20.2V21.7C151 21.9 150.9 22 150.8 22.1C150.7 22.2 150.5 22.2 150.4 22.2H143.1V26.6H151.1C151.3 26.6 151.4 26.7 151.5 26.8C151.6 26.9 151.7 27.1 151.7 27.2V28.8C151.7 29 151.6 29.1 151.5 29.2C151.4 29.3 151.2 29.3 151.1 29.3L140.6 29.4Z" fill="white"/>
    <path d="M155.299 29.4C155.099 29.4 154.999 29.3 154.899 29.2C154.799 29.1 154.699 29 154.699 28.8V13.2C154.699 13 154.699 12.9 154.799 12.8C154.899 12.7 155.099 12.6 155.199 12.6H161.499C163.399 12.6 164.899 13.1 165.999 14C167.099 14.9 167.599 16.2 167.599 18C167.599 19.7 167.099 21.1 165.999 22C164.899 22.9 163.399 23.3 161.499 23.3H157.999V28.9C157.999 29.1 157.899 29.2 157.799 29.3C157.699 29.4 157.599 29.5 157.399 29.5H155.299V29.4ZM161.499 20.6C162.399 20.6 163.099 20.4 163.599 20C164.099 19.6 164.299 18.9 164.299 18C164.299 17.2 164.099 16.5 163.599 16.1C163.099 15.6 162.399 15.4 161.499 15.4H157.999V20.7H161.499V20.6Z" fill="white"/>
    <path d="M168.301 29.4C168.201 29.4 168.101 29.4 167.901 29.3C167.801 29.2 167.801 29.1 167.801 28.9V28.7L173.501 13.2C173.601 12.8 173.901 12.6 174.301 12.6H176.901C177.301 12.6 177.601 12.8 177.701 13.2L183.401 28.7C183.401 28.7 183.401 28.8 183.401 28.9C183.401 29 183.401 29.2 183.301 29.3C183.201 29.4 183.101 29.4 183.001 29.4H180.901C180.701 29.4 180.501 29.4 180.401 29.3C180.301 29.2 180.201 29.1 180.201 29L179.101 26.1H172.101L171.001 29C170.901 29.3 170.601 29.5 170.301 29.5H168.301V29.4ZM178.301 23.3L175.601 15.9L172.901 23.3H178.301Z" fill="white"/>
    <path fill-rule="evenodd" clip-rule="evenodd" d="M19.4008 0L15.0008 5.9C13.9008 7.4 12.5008 9.5 11.1008 11.8C10.5008 12.8 9.90078 13.8 9.30078 14.8L14.2008 19.6C15.0008 18.1 15.8008 16.6 16.7008 15.2C17.6008 13.7 18.5008 12.3 19.4008 11.1C20.2008 12.3 21.1008 13.7 22.0008 15.2C22.8008 16.6 23.7008 18 24.4008 19.4L29.3008 14.5C28.8008 13.6 28.2008 12.7 27.7008 11.8C26.3008 9.5 24.9008 7.4 23.8008 5.9L19.4008 0Z" fill="#00B4E9"/>
    <path d="M37 26.8H33.5C33.5 33.9 27.3 41 19.2 41C11.2 41 5 33.9 4.9 26.8H1.5L8.3 20L15.1 26.8H11.6C11.6 30.6 15.2 34.5 19.3 34.5C23.3 34.5 26.9 30.6 26.9 26.8H23.4L30.2 20L37 26.8Z" fill="#00B4E9"/>
</svg>
