<svg viewBox="0 0 18 16" fill="#00B4E9" xmlns="http://www.w3.org/2000/svg">
    <path d="M17.6566 12.2915L11.0837 1.18519C10.648 0.439665 9.87135 0 9 0C8.12865 0 7.35202 0.439665 6.91635 1.18519L0.343367 12.2915C-0.111248 13.0562 -0.111248 13.9737 0.324425 14.7575C0.760098 15.5412 1.55567 16 2.42702 16H15.573C16.4633 16 17.2399 15.5412 17.6756 14.7575C18.1112 13.9737 18.1112 13.0562 17.6566 12.2915ZM9 13.4002C8.43173 13.4002 7.97712 12.9415 7.97712 12.368C7.97712 11.7945 8.43173 11.3357 9 11.3357C9.56827 11.3357 10.0229 11.7945 10.0229 12.368C10.0229 12.9415 9.56827 13.4002 9 13.4002ZM10.0987 5.54361L9.73875 9.80645C9.70087 10.2079 9.34096 10.5137 8.94317 10.4755C8.58327 10.4373 8.29914 10.1505 8.28019 9.80645L7.92029 5.54361C7.86346 4.9319 8.31808 4.39665 8.92423 4.33931C9.53038 4.28196 10.0608 4.74074 10.1176 5.35245C10.0987 5.4098 10.0987 5.48626 10.0987 5.54361Z"/>
</svg>
