<svg width="64" height="64" viewBox="0 0 64 64" fill="none" xmlns="http://www.w3.org/2000/svg">
<rect width="64" height="64" rx="16" fill="url(#paint0_linear_3602_1927)"/>
<g clip-path="url(#clip0_3602_1927)">
<path d="M45.0927 46.4181C46.3417 44.2206 47 41.7256 47 39.2064V23.7997C47 21.1348 46.2617 18.5123 44.8589 16.2117C42.1148 11.6953 37.3097 9 32 9C26.6903 9 21.8852 11.6953 19.1411 16.2117C17.7383 18.5123 17 21.1348 17 23.7997V39.2064C17 41.7256 17.6583 44.2206 18.9073 46.4181C21.5591 51.0983 26.5796 54.0061 32 54.0061C37.4204 54.0061 42.4348 51.0923 45.0927 46.4181ZM44.902 39.2064C44.902 41.3735 44.3359 43.5164 43.2592 45.4104C40.9766 49.435 36.6575 51.9421 31.9938 51.9421C27.3302 51.9421 23.0111 49.4411 20.7285 45.4104C19.6579 43.5164 19.0919 41.3675 19.0919 39.2064V23.7997C19.0919 21.5111 19.7256 19.2529 20.9315 17.274C23.2941 13.3828 27.4286 11.0639 32 11.0639C36.5714 11.0639 40.7059 13.3828 43.0685 17.2679C44.2744 19.2469 44.9081 21.5051 44.9081 23.7936V39.2064H44.902Z" fill="white"/>
<path d="M42.0469 44.6151C43.0006 42.9275 43.5112 41.0153 43.5112 39.0849V34.3318C43.5112 33.7612 43.0437 33.2998 42.4653 33.2998C41.887 33.2998 41.4194 33.7612 41.4194 34.3318V39.0849C41.4194 40.6632 41.0071 42.2294 40.2196 43.6074C38.5523 46.5454 35.4021 48.3787 31.9998 48.3787C28.5974 48.3787 25.4473 46.5515 23.7799 43.6074C22.9985 42.2294 22.5802 40.6632 22.5802 39.0849V34.3318C22.5802 33.7612 22.1126 33.2998 21.5342 33.2998C20.9559 33.2998 20.4883 33.7612 20.4883 34.3318V39.0849C20.4883 41.0153 20.9928 42.9275 21.9526 44.6151C23.9891 48.2087 27.8406 50.4427 31.9998 50.4427C36.1589 50.4427 40.0104 48.2087 42.0469 44.6151Z" fill="white"/>
<path d="M43.5112 26.7863V23.2897C43.5112 23.1987 43.4928 23.1076 43.4682 23.0226C43.0621 17.1222 38.0785 12.4419 31.9998 12.4419C25.921 12.4419 20.9374 17.1222 20.5313 23.0226C20.5067 23.1076 20.4883 23.1987 20.4883 23.2897V26.7863C20.4883 27.3569 20.9559 27.8183 21.5342 27.8183C22.1126 27.8183 22.5802 27.3569 22.5802 26.7863V23.7996C22.5802 18.6762 26.807 14.5058 31.9998 14.5058C37.1925 14.5058 41.4194 18.6762 41.4194 23.7996V26.7863C41.4194 27.3569 41.887 27.8183 42.4653 27.8183C43.0437 27.8183 43.5112 27.3569 43.5112 26.7863Z" fill="white"/>
<path d="M43.5107 30.4709C43.5107 29.9003 43.0431 29.439 42.4647 29.439C39.9668 29.439 37.9303 31.4483 37.9303 33.9129C37.9303 33.9554 37.9364 33.9918 37.9426 34.0282C37.9364 34.0646 37.9303 34.101 37.9303 34.1435V38.8967C37.9303 39.8862 37.6719 40.8696 37.1797 41.7376C36.1276 43.5952 34.1464 44.7425 32.0053 44.7425C29.8642 44.7425 27.8831 43.5891 26.831 41.7376C26.3388 40.8696 26.0804 39.8862 26.0804 38.8967V34.1435C26.0804 34.101 26.0742 34.0646 26.0681 34.0282C26.0742 33.9918 26.0804 33.9554 26.0804 33.9129C26.0804 31.4483 24.0439 29.439 21.5459 29.439C20.9676 29.439 20.5 29.9003 20.5 30.4709C20.5 31.0416 20.9676 31.5029 21.5459 31.5029C22.8934 31.5029 23.9885 32.5834 23.9885 33.9129C23.9885 33.9554 23.9947 33.9918 24.0008 34.0282C23.9947 34.0646 23.9885 34.101 23.9885 34.1435V38.8967C23.9885 40.2382 24.3392 41.5737 25.0098 42.7453C26.4311 45.2524 29.1198 46.8125 32.0115 46.8125C34.9093 46.8125 37.5919 45.2524 39.0131 42.7453C39.6776 41.5677 40.0345 40.2382 40.0345 38.8967V34.1435C40.0345 34.101 40.0283 34.0646 40.0221 34.0282C40.0283 33.9918 40.0345 33.9554 40.0345 33.9129C40.0345 32.5834 41.1296 31.5029 42.477 31.5029C43.0431 31.5029 43.5107 31.0416 43.5107 30.4709Z" fill="white"/>
<path d="M31.9561 43.0613C29.5997 43.037 27.7231 41.1127 27.7231 38.7877V31.0843C27.7231 30.7929 27.5816 30.5198 27.3417 30.3498C25.3359 28.8929 24.1546 26.6044 24.1485 24.1276C24.1423 22.0576 24.9606 20.109 26.4434 18.646C27.9262 17.177 29.9011 16.3696 31.9992 16.3696C36.3306 16.3696 39.8499 19.8419 39.8499 24.1155C39.8499 26.5983 38.6624 28.8929 36.6567 30.3498C36.4167 30.5198 36.2752 30.7929 36.2752 31.0843V38.8423C36.2752 41.1794 34.331 43.0855 31.9561 43.0613ZM31.9992 18.3061C30.4303 18.3061 28.9475 18.9131 27.84 20.0119C26.7264 21.1106 26.1173 22.5675 26.1173 24.1216C26.1235 26.1005 27.1325 27.9216 28.8183 28.9961C29.3659 29.3421 29.6919 29.937 29.6919 30.5865V38.8484C29.6919 40.105 30.7256 41.1248 31.9992 41.1248C33.2728 41.1248 34.3064 40.105 34.3064 38.8484V30.5744C34.3064 29.9309 34.6325 29.3421 35.1739 28.9961C36.8659 27.9216 37.8749 26.0944 37.8749 24.1094C37.881 20.9103 35.2416 18.3061 31.9992 18.3061Z" fill="white"/>
</g>
<defs>
<linearGradient id="paint0_linear_3602_1927" x1="32" y1="0" x2="32" y2="64" gradientUnits="userSpaceOnUse">
<stop stop-color="#0B3B9D"/>
<stop offset="1" stop-color="#0A2D8B"/>
</linearGradient>
<clipPath id="clip0_3602_1927">
<rect width="30" height="45" fill="white" transform="translate(17 9)"/>
</clipPath>
</defs>
</svg>
