<svg viewBox="0 0 22 22" xmlns="http://www.w3.org/2000/svg">
    <mask id="mask0" mask-type="alpha" maskUnits="userSpaceOnUse" x="0" y="0" width="22" height="22">
        <path d="M11 0C17.0749 0 22 4.92514 22 11C22 17.0749 17.0746 22 11 22C4.92536 22 0 17.0762 0 11C0 4.92382 4.92448 0 11 0Z" fill="#53AE94"/>
    </mask>
    <g mask="url(#mask0)">
        <path d="M27.4137 22H-5.41377C-5.7375 22 -6 21.7407 -6 21.421V0.578973C-6 0.259252 -5.7375 0 -5.41377 0H27.4138C27.7375 0 28 0.259252 28 0.578973V21.421C27.9999 21.7408 27.7374 22 27.4137 22Z" fill="#41479B"/>
        <path d="M11.0876 3.06303L11.3028 3.71217L11.983 3.71749C12.0711 3.71816 12.1076 3.83119 12.0367 3.88386L11.4895 4.29036L11.6947 4.94274C11.7212 5.02714 11.6257 5.09712 11.554 5.04555L11.0007 4.64762L10.4474 5.04555C10.3757 5.09705 10.2801 5.0272 10.3067 4.94274L10.5118 4.29036L9.96462 3.88386C9.89379 3.83119 9.93027 3.71816 10.0184 3.71749L10.6985 3.71217L10.9137 3.06303C10.9415 2.97899 11.0598 2.97899 11.0876 3.06303Z" fill="#FFE15A"/>
        <path d="M11.0876 16.9999L11.3028 17.6491L11.983 17.6544C12.0711 17.6551 12.1076 17.7681 12.0367 17.8208L11.4895 18.2273L11.6947 18.8796C11.7212 18.964 11.6257 19.034 11.554 18.9825L11.0007 18.5845L10.4474 18.9825C10.3757 19.034 10.2801 18.9641 10.3067 18.8796L10.5118 18.2273L9.96462 17.8208C9.89379 17.7681 9.93027 17.6551 10.0184 17.6544L10.6985 17.6491L10.9137 16.9999C10.9415 16.9159 11.0598 16.9159 11.0876 16.9999Z" fill="#FFE15A"/>
        <path d="M18.0136 10.0321L18.2289 10.6813L18.909 10.6866C18.9971 10.6873 19.0336 10.8003 18.9627 10.853L18.4156 11.2595L18.6207 11.9119C18.6473 11.9963 18.5517 12.0662 18.48 12.0147L17.9267 11.6167L17.3734 12.0147C17.3018 12.0662 17.2061 11.9963 17.2327 11.9119L17.4378 11.2595L16.8906 10.853C16.8198 10.8003 16.8563 10.6873 16.9444 10.6866L17.6245 10.6813L17.8398 10.0321C17.8675 9.94811 17.9858 9.94811 18.0136 10.0321Z" fill="#FFE15A"/>
        <path d="M4.16036 10.0321L4.37558 10.6813L5.05572 10.6866C5.14381 10.6873 5.18029 10.8003 5.10946 10.853L4.56229 11.2595L4.76742 11.9119C4.79399 11.9963 4.69841 12.0662 4.62673 12.0147L4.07342 11.6167L3.52011 12.0147C3.44849 12.0662 3.35285 11.9963 3.37942 11.9119L3.58455 11.2595L3.03738 10.853C2.96655 10.8003 3.00303 10.6873 3.09112 10.6866L3.77126 10.6813L3.98648 10.0321C4.01433 9.94811 4.13258 9.94811 4.16036 10.0321Z" fill="#FFE15A"/>
        <path d="M5.20089 6.39311L5.41611 7.04225L6.09624 7.04757C6.18434 7.04824 6.22082 7.16128 6.14999 7.21394L5.60281 7.62044L5.80794 8.27282C5.83451 8.35723 5.73894 8.4272 5.66726 8.37564L5.11395 7.9777L4.56063 8.37564C4.48901 8.42714 4.39338 8.35729 4.41995 8.27282L4.62508 7.62044L4.0779 7.21394C4.00708 7.16128 4.04355 7.04824 4.13165 7.04757L4.81179 7.04225L5.02701 6.39311C5.05485 6.30907 5.17298 6.30907 5.20089 6.39311Z" fill="#FFE15A"/>
        <path d="M17.1967 13.361L17.412 14.0101L18.0921 14.0155C18.1802 14.0161 18.2167 14.1292 18.1458 14.1818L17.5987 14.5883L17.8038 15.2407C17.8304 15.3251 17.7348 15.3951 17.6631 15.3435L17.1098 14.9456L16.5565 15.3435C16.4849 15.395 16.3892 15.3252 16.4158 15.2407L16.6209 14.5883L16.0738 14.1818C16.0029 14.1292 16.0394 14.0161 16.1275 14.0155L16.8076 14.0101L17.0229 13.361C17.0507 13.277 17.1689 13.277 17.1967 13.361Z" fill="#FFE15A"/>
        <path d="M14.6618 3.84123L14.877 4.49037L15.5572 4.49569C15.6453 4.49636 15.6818 4.6094 15.6109 4.66206L15.0638 5.06856L15.2689 5.72094C15.2955 5.80535 15.1999 5.87532 15.1282 5.82376L14.5749 5.42582L14.0216 5.82376C13.95 5.87526 13.8543 5.80541 13.8809 5.72094L14.086 5.06856L13.5388 4.66206C13.468 4.6094 13.5045 4.49636 13.5926 4.49569L14.2727 4.49037L14.4879 3.84123C14.5157 3.75719 14.6339 3.75719 14.6618 3.84123Z" fill="#FFE15A"/>
        <path d="M7.7358 15.9112L7.95102 16.5603L8.63116 16.5656C8.71925 16.5663 8.75573 16.6793 8.6849 16.732L8.13773 17.1385L8.34286 17.7909C8.36943 17.8753 8.27385 17.9453 8.20217 17.8937L7.64886 17.4958L7.09555 17.8937C7.02393 17.9452 6.92829 17.8754 6.95486 17.7909L7.15999 17.1385L6.61282 16.732C6.54199 16.6793 6.57847 16.5663 6.66656 16.5656L7.3467 16.5603L7.56192 15.9112C7.58976 15.8271 7.70789 15.8271 7.7358 15.9112Z" fill="#FFE15A"/>
        <path d="M17.0229 6.39311L16.8076 7.04225L16.1275 7.04757C16.0394 7.04824 16.0029 7.16128 16.0738 7.21394L16.6209 7.62044L16.4158 8.27282C16.3892 8.35723 16.4848 8.4272 16.5565 8.37564L17.1098 7.9777L17.6631 8.37564C17.7347 8.42714 17.8304 8.35729 17.8038 8.27282L17.5987 7.62044L18.1458 7.21394C18.2167 7.16128 18.1802 7.04824 18.0921 7.04757L17.412 7.04225L17.1967 6.39311C17.1689 6.30907 17.0507 6.30907 17.0229 6.39311Z" fill="#FFE15A"/>
        <path d="M5.02701 13.361L4.81179 14.0101L4.13165 14.0155C4.04355 14.0161 4.00708 14.1292 4.0779 14.1818L4.62508 14.5883L4.41995 15.2407C4.39338 15.3251 4.48895 15.3951 4.56063 15.3435L5.11395 14.9456L5.66726 15.3435C5.73888 15.395 5.83451 15.3252 5.80794 15.2407L5.60281 14.5883L6.14999 14.1818C6.22082 14.1292 6.18434 14.0161 6.09624 14.0155L5.41611 14.0101L5.20089 13.361C5.17298 13.277 5.05485 13.277 5.02701 13.361Z" fill="#FFE15A"/>
        <path d="M7.56192 3.84123L7.3467 4.49037L6.66656 4.49569C6.57847 4.49636 6.54199 4.6094 6.61282 4.66206L7.15999 5.06856L6.95486 5.72094C6.92829 5.80535 7.02387 5.87532 7.09555 5.82376L7.64886 5.42582L8.20217 5.82376C8.27379 5.87526 8.36943 5.80541 8.34286 5.72094L8.13773 5.06856L8.6849 4.66206C8.75573 4.6094 8.71925 4.49636 8.63116 4.49569L7.95102 4.49037L7.7358 3.84123C7.70789 3.75719 7.58976 3.75719 7.56192 3.84123Z" fill="#FFE15A"/>
        <path d="M14.4879 15.9112L14.2727 16.5603L13.5926 16.5656C13.5045 16.5663 13.468 16.6793 13.5388 16.732L14.086 17.1385L13.8809 17.7909C13.8543 17.8753 13.9499 17.9453 14.0216 17.8937L14.5749 17.4958L15.1282 17.8937C15.1998 17.9452 15.2955 17.8754 15.2689 17.7909L15.0638 17.1385L15.6109 16.732C15.6818 16.6793 15.6453 16.5663 15.5572 16.5656L14.877 16.5603L14.6618 15.9112C14.6339 15.8271 14.5158 15.8271 14.4879 15.9112Z" fill="#FFE15A"/>
    </g>
</svg>
