<svg viewBox="0 0 22 22" fill="none" xmlns="http://www.w3.org/2000/svg">
    <g clip-path="url(#clip0)">
        <path d="M21.98 11C21.98 12.4445 21.6962 13.8749 21.1448 15.2095C20.5934 16.5441 19.7852 17.7567 18.7664 18.7782C17.7475 19.7996 16.538 20.6099 15.2067 21.1627C13.8755 21.7155 12.4488 22 11.0079 22C10.5372 22.0023 10.0671 21.9688 9.60144 21.9C8.82201 21.8078 8.05564 21.6266 7.31724 21.36C5.17827 20.6024 3.32611 19.1988 2.01571 17.3423C0.70531 15.4858 0.00109507 13.2678 1.2761e-06 10.9935C-0.00109252 8.71926 0.700989 6.50055 2.0096 4.64281C3.31822 2.78508 5.16903 1.37965 7.30726 0.620001C8.05908 0.354401 8.83893 0.176561 9.63137 0.0900013C10.0944 0.0298315 10.5609 -0.000231336 11.0278 1.34027e-06C13.9378 1.34027e-06 16.7286 1.15893 18.7863 3.22183C20.844 5.28473 22 8.08262 22 11H21.98Z" fill="#79A6FF"/>
        <path opacity="0.5" d="M21.9799 11C21.9853 12.7094 21.5933 14.3965 20.8349 15.9275C20.0766 17.4585 18.9727 18.7913 17.611 19.82L12.893 11.01L8.31457 2.53L7.30713 0.620001C8.05895 0.354401 8.83879 0.176561 9.63123 0.0900013C10.0943 0.0298315 10.5608 -0.000231336 11.0277 1.34027e-06C13.9377 1.34027e-06 16.7285 1.15893 18.7862 3.22183C20.8439 5.28473 21.9999 8.08262 21.9999 11H21.9799Z" fill="#1149D6" fill-opacity="0.3"/>
        <path opacity="0.5" d="M21.9801 11C21.9801 12.4445 21.6963 13.8749 21.1449 15.2095C20.5935 16.5441 19.7853 17.7567 18.7664 18.7782C17.7475 19.7996 16.538 20.6099 15.2068 21.1627C13.8756 21.7155 12.4488 22 11.0079 22C10.5373 22.0023 10.0671 21.9688 9.60148 21.9C8.82205 21.8078 8.05567 21.6266 7.31727 21.36C4.63793 20.401 2.43488 18.4362 1.17285 15.88L3.77625 11.01L8.31474 2.53L9.6314 0.0900013C10.0945 0.0298315 10.5609 -0.000231336 11.0279 1.34027e-06C13.9379 1.34027e-06 16.7287 1.15893 18.7864 3.22183C20.844 5.28473 22 8.08262 22 11H21.9801Z" fill="#1149D6" fill-opacity="0.3"/>
        <path opacity="0.5" d="M21.9798 11C21.9798 12.4445 21.696 13.8749 21.1446 15.2095C20.5932 16.5441 19.785 17.7567 18.7661 18.7782C17.7473 19.7996 16.5377 20.6099 15.2065 21.1627C13.8753 21.7155 12.4485 22 11.0076 22C10.537 22.0023 10.0668 21.9688 9.6012 21.9L8.31446 19.49L3.77597 11.01L1.1626 6.13C2.41848 3.56246 4.62234 1.58615 7.30701 0.620001C8.05883 0.354401 8.83868 0.176561 9.63112 0.0900013C10.0942 0.0298315 10.5606 -0.000231336 11.0276 1.34027e-06C13.9376 1.34027e-06 16.7284 1.15893 18.7861 3.22183C20.8438 5.28473 21.9998 8.08262 21.9998 11H21.9798Z" fill="#1149D6" fill-opacity="0.3"/>
        <path d="M21.9802 11.0002C21.9802 12.4447 21.6964 13.8751 21.145 15.2097C20.5936 16.5443 19.7854 17.7569 18.7665 18.7784C17.7477 19.7998 16.5381 20.61 15.2069 21.1629C13.8757 21.7157 12.4489 22.0002 11.008 22.0002C10.5374 22.0024 10.0672 21.969 9.60159 21.9002C8.82216 21.808 8.05579 21.6268 7.31738 21.3602L8.31485 19.4902L12.8533 11.0102L17.6113 2.18018C18.973 3.20891 20.0769 4.54166 20.8352 6.07266C21.5936 7.60366 21.9856 9.29079 21.9802 11.0002Z" fill="#1149D6" fill-opacity="0.3"/>
        <path d="M14.1699 8.53006H8.50431C8.68874 8.23603 8.90629 7.96425 9.15267 7.72006C9.90103 6.96876 10.8842 6.49815 11.9375 6.3871C12.9908 6.27604 14.0501 6.53129 14.938 7.11006L15.7759 5.53006C15.2504 5.20506 14.6786 4.96227 14.0802 4.81006C12.9966 4.51025 11.8522 4.51025 10.7686 4.81006C9.68077 5.09739 8.68912 5.67042 7.89586 6.47006C7.30081 7.05676 6.82933 7.75727 6.50937 8.53006H5.10294L4.10547 10.3001H13.1625L14.1699 8.53006Z" fill="white"/>
        <path d="M14.9275 14.9002C14.5263 15.1636 14.085 15.3596 13.6208 15.4802C12.8365 15.6902 12.0111 15.6902 11.2268 15.4802C10.1046 15.1722 9.13506 14.4601 8.50376 13.4802H14.1694L13.1719 11.7002H4.15479L5.15226 13.4802H6.50881C6.82877 14.253 7.30025 14.9535 7.8953 15.5402C8.69118 16.3364 9.68186 16.9089 10.768 17.2002C11.8525 17.4937 12.9952 17.4937 14.0796 17.2002C14.677 17.0402 15.2482 16.7943 15.7753 16.4702L14.9275 14.9002Z" fill="white"/>
    </g>
    <defs>
        <clipPath id="clip0">
            <rect width="22" height="22" fill="white"/>
        </clipPath>
    </defs>
</svg>
