<svg viewBox="0 0 22 22" fill="#00C5FF" xmlns="http://www.w3.org/2000/svg">
    <path fill-rule="evenodd" clip-rule="evenodd" d="M10.6489 15.5967L6.40625 19.8393L2.16361 15.5967L6.40625 11.354L10.6489 15.5967ZM7.82046 21.2535C7.03942 22.0346 5.77309 22.0346 4.99204 21.2535L0.749396 17.0109C-0.0316527 16.2298 -0.0316528 14.9635 0.749396 14.1824L4.99204 9.9398C5.77308 9.15875 7.03942 9.15875 7.82046 9.9398L12.0631 14.1824C12.8442 14.9635 12.8442 16.2298 12.0631 17.0109L7.82046 21.2535Z"/>
    <path fill-rule="evenodd" clip-rule="evenodd" d="M19.8364 6.40403L15.5938 10.6467L11.3511 6.40403L15.5938 2.16139L19.8364 6.40403ZM17.008 12.0609C16.2269 12.8419 14.9606 12.8419 14.1795 12.0609L9.9369 7.81824C9.15585 7.03719 9.15585 5.77087 9.9369 4.98982L14.1795 0.747176C14.9606 -0.0338727 16.2269 -0.0338727 17.008 0.747176L21.2506 4.98982C22.0317 5.77086 22.0317 7.03719 21.2506 7.81824L17.008 12.0609Z"/>
    <path fill-rule="evenodd" clip-rule="evenodd" d="M6.40242 15.5965C6.01189 15.206 6.01189 14.5728 6.40242 14.1823L14.1806 6.40412C14.5711 6.0136 15.2043 6.0136 15.5948 6.40412C15.9853 6.79465 15.9853 7.42781 15.5948 7.81834L7.81663 15.5965C7.42611 15.987 6.79294 15.987 6.40242 15.5965Z"/>
</svg>
