<svg width="32" height="32" viewBox="0 0 32 32" fill="none" xmlns="http://www.w3.org/2000/svg">
    <path d="M26.7526 0.00933635C25.3647 0.0121815 24.0344 0.564435 23.0529 1.54521C22.0715 2.52599 21.5189 3.85539 21.516 5.24241V11.843C21.516 12.0276 21.4613 12.208 21.359 12.3617C21.2567 12.5153 21.1112 12.6353 20.9408 12.7067C20.7705 12.778 20.5828 12.7974 20.4014 12.7625C20.2201 12.7276 20.053 12.64 19.9213 12.5106L8.94173 1.52757C7.95659 0.54916 6.62408 0 5.23517 0C3.84625 0 2.51375 0.54916 1.5286 1.52757C0.54953 2.51205 0 3.84366 0 5.23164C0 6.61962 0.54953 7.95123 1.5286 8.93571L22.7767 30.1587C23.2651 30.7366 23.874 31.2009 24.5608 31.5189C25.2476 31.837 25.9957 32.0012 26.7526 32C28.1425 32 29.4755 31.449 30.4593 30.4679C31.443 29.4868 31.9971 28.1558 32 26.7669V5.23164C31.9943 3.84462 31.4389 2.51636 30.4555 1.5376C29.472 0.558842 28.1406 0.00932465 26.7526 0.00933635Z" fill="#4BD56E"/>
    <path d="M0.0017767 26.9091C0.0017767 29.7207 2.28105 32 5.09269 32C7.90432 32 10.1836 29.7207 10.1836 26.9091C10.1836 24.0975 7.90432 21.8182 5.09269 21.8182C2.28105 21.8182 0.0017767 24.0975 0.0017767 26.9091Z" fill="#4BD56E"/>
</svg>
