<svg viewBox="0 0 824 198" fill="#79A6FF" xmlns="http://www.w3.org/2000/svg">
    <g>
        <path d="M168.677 114.84C168.677 121.77 165.769 128.7 160.922 134.64C155.105 140.58 149.289 142.56 141.534 142.56H36.8371V198H5.81592V62.4L32.9595 31.68H5.81592V3.95996H141.534C148.319 3.95996 155.105 6.92996 160.922 11.88C166.738 17.82 168.677 23.76 168.677 31.68V114.84ZM137.656 114.84V31.68H36.8371V138.6L63.103 114.84H137.656Z"/>
        <path d="M368.377 198H259.659C244.747 198 232.659 185.912 232.659 171V62.4L259.803 31.68H232.659V3.95996H338.5L368.377 31.68H263.68V110.88L289.946 87.12H368.377V114.84H263.68V170.28H368.377V198Z"/>
        <path d="M587.463 198H556.442V174.24L530.176 198H451.745C444.959 198 438.173 195.03 432.357 190.08C426.54 185.13 424.602 178.2 424.602 170.28V31.68C424.602 24.75 427.51 17.82 432.357 11.88C438.173 5.93996 443.99 3.95996 451.745 3.95996H557.5L587.463 31.68H455.623V170.28H556.442V114.84H506.032L536.176 87.12H587.463V198Z"/>
        <path d="M783.377 59.3997H827L688.283 198H644.659L783.377 59.3997Z"/>
        <path d="M735.913 113.118L680.435 59.3997H636.811L692.29 113.118H735.913Z"/>
        <path d="M771.805 149.481H728.182L778.529 197.999H822.153L771.805 149.481Z"/>
    </g>
</svg>
