<svg width="64" height="64" viewBox="0 0 64 64" fill="#00B4E9" xmlns="http://www.w3.org/2000/svg">
    <path fill-rule="evenodd" clip-rule="evenodd" d="M2 32C2 48.5685 15.4315 62 32 62C48.5685 62 62 48.5685 62 32C62 15.4315 48.5685 2 32 2C15.4315 2 2 15.4315 2 32ZM32 0C14.3269 0 0 14.3269 0 32C0 49.6731 14.3269 64 32 64C49.6731 64 64 49.6731 64 32C64 14.3269 49.6731 0 32 0Z"/>
    <path fill-rule="evenodd" clip-rule="evenodd" d="M45.7329 23.3196C46.1086 23.7244 46.0851 24.3571 45.6804 24.7329L27.7675 41.3624L19.3221 33.5749C18.9161 33.2006 18.8905 32.5679 19.2648 32.1619C19.6392 31.7559 20.2719 31.7302 20.6779 32.1046L27.7629 38.6376L44.3196 23.2671C44.7244 22.8914 45.3571 22.9149 45.7329 23.3196Z"/>
</svg>
