<svg width="64" height="64" viewBox="0 0 64 64" fill="#FF224A" xmlns="http://www.w3.org/2000/svg">
    <path fill-rule="evenodd" clip-rule="evenodd" d="M2 32C2 48.5685 15.4315 62 32 62C48.5685 62 62 48.5685 62 32C62 15.4315 48.5685 2 32 2C15.4315 2 2 15.4315 2 32ZM32 0C14.3269 0 0 14.3269 0 32C0 49.6731 14.3269 64 32 64C49.6731 64 64 49.6731 64 32C64 14.3269 49.6731 0 32 0Z"/>
    <path fill-rule="evenodd" clip-rule="evenodd" d="M21.2929 42.7071C20.9024 42.3166 20.9024 41.6834 21.2929 41.2929L41.2929 21.2929C41.6834 20.9024 42.3166 20.9024 42.7071 21.2929C43.0976 21.6834 43.0976 22.3166 42.7071 22.7071L22.7071 42.7071C22.3166 43.0976 21.6834 43.0976 21.2929 42.7071Z"/>
    <path fill-rule="evenodd" clip-rule="evenodd" d="M21.2929 21.2929C21.6834 20.9024 22.3166 20.9024 22.7071 21.2929L42.7071 41.2929C43.0976 41.6834 43.0976 42.3166 42.7071 42.7071C42.3166 43.0976 41.6834 43.0976 41.2929 42.7071L21.2929 22.7071C20.9024 22.3166 20.9024 21.6834 21.2929 21.2929Z"/>
</svg>
