<svg width="64" height="64" viewBox="0 0 64 64" fill="#00B4E9" xmlns="http://www.w3.org/2000/svg">
    <path fill-rule="evenodd" clip-rule="evenodd" d="M21.0438 31.8447C21.0438 31.2685 21.4712 30.8013 21.9985 30.8013L25.3735 30.8013C25.9007 30.8013 26.3281 31.2685 26.3281 31.8447C26.3281 32.421 25.9007 32.8881 25.3735 32.8881L21.9985 32.8881C21.4712 32.8881 21.0438 32.421 21.0438 31.8447Z"/>
    <path fill-rule="evenodd" clip-rule="evenodd" d="M29.4735 31.8447C29.4735 31.2685 29.9009 30.8013 30.4281 30.8013L33.8032 30.8013C34.3304 30.8013 34.7578 31.2685 34.7578 31.8447C34.7578 32.421 34.3304 32.8881 33.8032 32.8881L30.4281 32.8881C29.9009 32.8881 29.4735 32.421 29.4735 31.8447Z"/>
    <path fill-rule="evenodd" clip-rule="evenodd" d="M37.6649 31.8447C37.6649 31.2685 38.0923 30.8013 38.6195 30.8013L41.9946 30.8013C42.5218 30.8013 42.9492 31.2685 42.9492 31.8447C42.9492 32.421 42.5218 32.8881 41.9946 32.8881L38.6195 32.8881C38.0923 32.8881 37.6649 32.421 37.6649 31.8447Z"/>
    <path fill-rule="evenodd" clip-rule="evenodd" d="M2 32C2 48.5685 15.4315 62 32 62C48.5685 62 62 48.5685 62 32C62 15.4315 48.5685 2 32 2C15.4315 2 2 15.4315 2 32ZM32 0C14.3269 0 0 14.3269 0 32C0 49.6731 14.3269 64 32 64C49.6731 64 64 49.6731 64 32C64 14.3269 49.6731 0 32 0Z"/>
</svg>
