<svg viewBox="0 0 20 20" fill="white" xmlns="http://www.w3.org/2000/svg">
    <path fill-rule="evenodd" clip-rule="evenodd" d="M5 5C4.44772 5 4 5.44772 4 6V15.5858L2.20711 13.7929C1.81658 13.4024 1.18342 13.4024 0.792893 13.7929C0.402369 14.1834 0.402369 14.8166 0.792893 15.2071L4.29289 18.7071C4.68342 19.0976 5.31658 19.0976 5.70711 18.7071L9.20711 15.2071C9.59763 14.8166 9.59763 14.1834 9.20711 13.7929C8.81658 13.4024 8.18342 13.4024 7.79289 13.7929L6 15.5858V6C6 5.44772 5.55228 5 5 5Z"/>
    <path fill-rule="evenodd" clip-rule="evenodd" d="M15 15C14.4477 15 14 14.5523 14 14V4.41421L12.2071 6.20711C11.8166 6.59763 11.1834 6.59763 10.7929 6.20711C10.4024 5.81658 10.4024 5.18342 10.7929 4.79289L14.2929 1.29289C14.6834 0.902369 15.3166 0.902369 15.7071 1.29289L19.2071 4.79289C19.5976 5.18342 19.5976 5.81658 19.2071 6.20711C18.8166 6.59763 18.1834 6.59763 17.7929 6.20711L16 4.41421V14C16 14.5523 15.5523 15 15 15Z"/>
</svg>
